<svg xmlns="http://www.w3.org/2000/svg" width="1920" height="1087"><defs><clipPath id="a"><path data-name="Rectangle 1" transform="translate(0 8152)" fill="#fff" stroke="#707070" d="M0 0h1920v1087H0z"/></clipPath><linearGradient id="b" x1=".825" y1=".5" x2=".175" y2=".5" gradientUnits="objectBoundingBox"><stop offset="0" stop-color="#009eff"/><stop offset="1" stop-color="#511de5"/></linearGradient></defs><g transform="translate(0 -8152)" clip-path="url(#a)"><g data-name="footer"><path data-name="Rectangle 13" d="M-57.968 8185.757c374.829 888.743 1156.885 551.417 1599.512 1194.885 46.629-180.642-42.559 6.475-131.746 193.592L-325.53 8747.108z" fill="#3a41ec"/><path data-name="Rectangle 13 copy 2" d="M877.353 8451c377.412 488.594 710.206 56.575 1071.653 364.645-13.459-132.07-20.575 15.641-27.691 163.353L856 8894.135q10.679-221.568 21.353-443.135z" fill="#3a41ec"/><path data-name="Rectangle 13 copy" d="M-2 6669c720.755 723.625 1281.579 0 1958 440.739-35.632-206.734-35.632 27.271-35.632 261.275H-2z" transform="translate(0 1867)" fill="url(#b)"/></g></g></svg>