<svg xmlns="http://www.w3.org/2000/svg" width="307" height="307"><defs><filter id="a" x="0" y="0" width="307" height="307" filterUnits="userSpaceOnUse"><feOffset/><feGaussianBlur stdDeviation="34" result="b"/><feFlood flood-color="#0e484f" flood-opacity=".18"/><feComposite operator="in" in2="b"/><feComposite in="SourceGraphic"/></filter><linearGradient id="b" x1=".825" y1=".5" x2=".175" y2=".5" gradientUnits="objectBoundingBox"><stop offset="0" stop-color="#009eff"/><stop offset="1" stop-color="#511de5"/></linearGradient></defs><g filter="url(#a)"><circle cx="51.5" cy="51.5" r="51.5" transform="translate(102 102)" fill="#fff"/></g><text transform="translate(179.081 177.531)" fill="#0eb5c9" font-size="82" font-family="SegoeUI, Segoe UI" letter-spacing=".8em"><tspan x="-38.297" y="0">W</tspan></text><path d="M254.377 60.115l-16.216 57.416h-7.888L218.462 75.57a26.267 26.267 0 0 1-.921-5.846h-.16a29.66 29.66 0 0 1-1.041 5.766l-11.892 42.041h-7.808l-16.815-57.416h7.407l12.212 44.043a28.906 28.906 0 0 1 .961 5.766h.2a34.033 34.033 0 0 1 1.241-5.766l12.692-44.043h6.446l12.172 44.363a32.454 32.454 0 0 1 .961 5.365h.16a32.162 32.162 0 0 1 1.081-5.525l11.731-44.2z" fill="url(#b)" transform="translate(-38 60)"/></svg>