<svg xmlns="http://www.w3.org/2000/svg" width="34" height="30"><path d="M.8 30a.807.807 0 0 1 0-1.614h32.4a.807.807 0 0 1 0 1.614zm24.658-4.523H2.9a.805.805 0 0 1-.8-.807V9.218a.805.805 0 0 1 .8-.806h5.641a.805.805 0 0 1 .8.806v6.861h4.035V.806a.8.8 0 0 1 .8-.807h5.641a.8.8 0 0 1 .8.807v9.3h4.035V4.619a.805.805 0 0 1 .8-.807H31.1a.805.805 0 0 1 .8.807v20.053a.805.805 0 0 1-.8.807zm.8-14.565v12.951H30.3V5.425h-4.035zm-5.641 12.951h4.035V11.718h-4.035zm-5.641 0h4.035V1.613h-4.035zm-5.642 0h4.035v-6.169H9.334zm-5.641 0h4.035V10.026H3.7z" fill="#511de5"/></svg>