<svg xmlns="http://www.w3.org/2000/svg" width="352.9" height="351"><defs><linearGradient id="a" x1=".825" y1=".5" x2=".175" y2=".5" gradientUnits="objectBoundingBox"><stop offset="0" stop-color="#009eff"/><stop offset="1" stop-color="#501dde"/></linearGradient></defs><text data-name="W" transform="translate(115 253)" fill="#0eb5c9" font-size="280.874" font-family="Arizonia-Regular, Arizonia" letter-spacing=".8em"><tspan x="-114.316" y="0">W</tspan></text><path data-name="Gradient Overlay" d="M590.22 1035.675q16.291 0 16.291 30.053T586.85 1151.4q68.814-108.417 114.316-135.943 17.976-10.673 33.424-10.673 8.145 0 11.516 4.775a2.155 2.155 0 0 1 .281.843q0 1.4-2.528 1.4h-3.651q-12.92 0-31.177 12.078a214.569 214.569 0 0 0-35.952 30.475q-17.7 18.4-38.48 44.8-32.3 41.288-61.792 85.947-1.685 3.37-16.572 8.286t-16.15 4.915q-1.264 0-1.264-.281t4.775-10.954q4.775-10.673 8.567-20.082t9.128-23.453q12.078-31.458 16.852-51.4t4.775-26.964q0-12.077-7.864-12.078-16.01 0-51.681 40.165a446.038 446.038 0 0 0-41.569 54.209 390.348 390.348 0 0 1-25.84 51.681q-1.966 3.09-17.555 8.145t-17.133 5.056q-1.545 0-1.264-.562 33.424-66.005 43.535-92.829t14.605-42.131q4.494-15.308 4.494-27.526t-5.477-19.24q-5.477-7.022-12.218-7.022t-14.605 4.775q-16.291 9.269-32.16 36.514t-17.555 54.209q-.281 3.37-1.124 3.651-1.123.281-1.685-1.4a38.287 38.287 0 0 1-1.4-11.656q0-7.443 3.932-24.717t12.358-29.773a90.166 90.166 0 0 1 20.223-21.487q21.627-16.852 45.5-16.852 12.92 0 20.5 8.988 8.145 9.55 8.145 27.526 0 25.84-12.358 63.2a269.4 269.4 0 0 1 28.79-35.39 276.088 276.088 0 0 1 35.25-31.037q18.819-13.913 31.458-13.913z" fill="url(#a)" transform="translate(-393.486 -938.279)"/></svg>