<svg xmlns="http://www.w3.org/2000/svg" width="36" height="29" viewBox="0 0 36 29">
  <path id="cloud" d="M407.561,3957.217v-9.637l-1.847,1.684a.757.757,0,0,1-1.084-.062.8.8,0,0,1,.061-1.107l2.792-2.545a1.249,1.249,0,0,1,1.69,0l2.793,2.545a.8.8,0,0,1,.061,1.107.756.756,0,0,1-1.084.062l-1.847-1.683v9.637a.768.768,0,1,1-1.536,0Zm4.606-2.646a.783.783,0,0,1,0-1.566h6.266a6.154,6.154,0,1,0-.612-12.276.76.76,0,0,1-.612-.218.794.794,0,0,1-.231-.617l.006-.08c.014-.189.026-.366.026-.539a8.633,8.633,0,0,0-8.535-8.708,8.409,8.409,0,0,0-5.629,2.168,8.764,8.764,0,0,0-2.817,5.354.772.772,0,0,1-.832.674c-.242-.024-.459-.035-.665-.035a7.14,7.14,0,0,0,0,14.276h5.958a.783.783,0,0,1,0,1.566h-5.958a8.706,8.706,0,0,1,0-17.409h.1a10.333,10.333,0,0,1,3.2-5.6,9.924,9.924,0,0,1,6.644-2.56,10.183,10.183,0,0,1,10.069,10.132,7.723,7.723,0,0,1-.111,15.439Zm-9.428-15.314a.781.781,0,0,1-.657-.882,6.52,6.52,0,0,1,6.392-5.694.783.783,0,0,1,0,1.566,4.969,4.969,0,0,0-4.871,4.339.773.773,0,0,1-.76.678A.714.714,0,0,1,402.74,3939.257Z" transform="translate(-390 -3929)" fill="#0c8afb"/>
</svg>
