<svg xmlns="http://www.w3.org/2000/svg" width="2188.22" height="1556.667" viewBox="0 0 2188.22 1556.667"><g transform="translate(-102 246.123)"><path d="M1425.895-204.151c269.817-74.746,447.439-46.019,577.465,57.29,128.807,102.6,210.018,279.782,258.864,485.575,23.408,99.237,33.1,199.7,25.4,281.173-7.3,82.825-31.987,146.668-68.165,203.831-36.4,57.338-84.307,107.974-143.293,168.224-59.836,59.24-130.753,128.094-232.757,198.578-98.779,67.21-220.408,117.072-324.959,119.714-104.435,4.411-191.792-38.4-219.284-115.623-33.79-76.2-7.727-186.831,27-298.771,33.468-112.5,75.6-226.3,44.914-321.714-46.866-192.668-383.545-278.715-422.517-409.695-26.4-62.749,21.565-135.389,115.35-202.642,92.739-67.091,231.3-128.8,361.981-165.94Z" fill="#f6f6f6" opacity="0.459"/><path d="M1520.837-225.773c277.153-39.68,449.653,11.494,565.422,130.561C2200.91,23,2258.831,209.1,2281,419.443c10.545,101.414,7.324,202.288-10.713,282.115-17.818,81.214-50.454,141.382-93.635,193.457-43.425,52.221-97.4,96.324-163.6,148.549-66.911,51.114-146.04,110.349-256.209,167.23-106.553,54.046-233.553,87.969-337.585,77.238-104.143-8.96-185.319-62.574-202.724-142.677-23.784-79.888,16.194-186.289,64.932-292.877,47.559-107.3,103.878-214.8,85.627-313.345-21.88-197.075-344.815-325.41-366.742-460.294-18.167-65.606,38.677-131.527,140.282-186.253,100.547-54.7,245.855-98.2,380.207-118.358Z" fill="#f6f6f6"/><g transform="translate(102 266)" fill="rgba(0,0,255,0)" stroke="#e9e9e9" stroke-linejoin="round" stroke-width="59" opacity="0.412"><circle cx="291" cy="291" r="291" stroke="none"/><circle cx="291" cy="291" r="261.5" fill="none"/></g><path d="M797.836,858,755.1,948.482l-99.277-12.551L637.2,837.689l87.767-48.166Z" fill="#f6f6f6"/></g></svg>