<svg xmlns="http://www.w3.org/2000/svg" xmlns:xlink="http://www.w3.org/1999/xlink" width="492.061" height="462.434" viewBox="0 0 492.061 462.434">
  <defs>
    <linearGradient id="linear-gradient" x1="0.825" y1="0.5" x2="0.175" y2="0.5" gradientUnits="objectBoundingBox">
      <stop offset="0" stop-color="#009eff"/>
      <stop offset="1" stop-color="#511de5"/>
    </linearGradient>
  </defs>
  <g id="quote-bg" transform="translate(-327.972 -2742.457)">
    <path id="Ellipse_3_copy" data-name="Ellipse 3 copy" d="M521.724,2853.36c31.685-6.359,57.931-32.555,83.054-56.271,12.479-12.068,24.6-23.449,36.474-32.628s23.5-16.16,35.024-19.46c22.94-7.074,45.465.575,66.222,23.368,20.649,22.3,39.541,59.842,52.806,101.777,13.368,40.321,19.96,86.078,19.426,119.934-.471,34.728-8.067,57.555-21.612,72.264-27.073,28.8-77.807,29.414-137.713,84.2-29.813,23.671-58.944,48.188-82.928,55.416-24.29,8.14-43.434-1.007-60.345-23.606-17.107-22.243-33.605-55.432-56.535-87.948-11.357-16.367-24.2-32.719-38.025-48.921-6.9-8.112-14.014-16.21-21.161-24.372q-5.359-6.122-10.708-12.312T375.14,2992.3q-1.274-1.54-2.529-3.079t-2.487-3.076q-2.464-3.075-4.832-6.145-4.731-6.139-9.005-12.254a207.5,207.5,0,0,1-14.721-24.265c-8.189-15.975-12.654-31.588-13.444-45.225-1.62-27.786,9.984-46.723,27.77-52.587q.839-.3,1.7-.572t1.743-.5q1.764-.468,3.612-.8a59.139,59.139,0,0,1,7.712-.854,103.324,103.324,0,0,1,17.266.818c12.283,1.492,26.086,4.617,40.907,8.037,29.581,6.361,62.817,14.056,92.891,1.569Z" fill="blue" opacity="0.071"/>
    <path id="Ellipse_3" data-name="Ellipse 3" d="M564.2,2838.342c32.128,3.484,65.049-13.585,96.15-28.627,15.535-7.747,30.524-14.946,44.611-20.121s27.279-8.326,39.26-8c24.005.167,43.178,14.248,56.1,42.238,12.97,27.483,19.67,68.976,19.681,112.959.6,42.475-6.907,88.091-17.619,120.212-10.914,32.971-25.036,52.448-42.384,62.392-34.495,19.307-83.054,4.6-156.685,38.79-35.56,13.587-70.725,28.185-95.772,27.85-25.614.442-41.112-14.048-50.427-40.693-9.609-26.365-15.339-62.982-27.4-100.9-5.9-19.029-13.217-38.491-21.515-58.106-4.132-9.814-8.478-19.679-12.833-29.616q-3.265-7.453-6.5-14.967c-2.146-5.011-4.259-10.045-6.3-15.11q-.751-1.853-1.483-3.7t-1.444-3.683q-1.423-3.675-2.756-7.315-2.661-7.28-4.894-14.4a207.488,207.488,0,0,1-6.725-27.573c-2.994-17.7-2.547-33.933.81-47.174,6.829-26.982,23.6-41.543,42.326-41.775q.892-.036,1.794-.033t1.813.047q1.823.086,3.686.324a59.156,59.156,0,0,1,7.611,1.509,103.345,103.345,0,0,1,16.217,5.984c11.263,5.123,23.481,12.263,36.583,19.99,26.289,14.979,55.661,32.332,88.1,29.488Z" fill="url(#linear-gradient)"/>
  </g>
</svg>
