<svg xmlns="http://www.w3.org/2000/svg" width="254" height="174" viewBox="0 0 254 174">
  <path id="quote-sign" d="M783.756,5495.272a55.364,55.364,0,1,1-55.508,55.364l-.248-7.909C728,5481.574,777.7,5432,839.017,5432v31.636a78.883,78.883,0,0,0-56.072,23.165,80.347,80.347,0,0,0-7.887,9.15A56.07,56.07,0,0,1,783.756,5495.272Zm142.736,0a55.364,55.364,0,1,1-55.508,55.364l-.248-7.909c0-61.153,49.7-110.727,111.017-110.727v31.636A78.882,78.882,0,0,0,925.68,5486.8a80.291,80.291,0,0,0-7.888,9.15A56.078,56.078,0,0,1,926.492,5495.272Z" transform="translate(-728 -5432)" fill="#f2f2f2"/>
</svg>
