<svg xmlns="http://www.w3.org/2000/svg" width="34" height="30" viewBox="0 0 34 30">
  <path id="track-metrics" d="M390.8,3905a.807.807,0,0,1,0-1.614H423.2a.807.807,0,0,1,0,1.614Zm24.658-4.523H392.9a.805.805,0,0,1-.8-.807v-15.452a.805.805,0,0,1,.8-.806h5.641a.805.805,0,0,1,.8.806v6.861h4.035v-15.273a.8.8,0,0,1,.8-.807h5.641a.8.8,0,0,1,.8.807v9.3h4.035v-5.487a.805.805,0,0,1,.8-.807H421.1a.805.805,0,0,1,.8.807v20.053a.805.805,0,0,1-.8.807Zm.8-14.565v12.951H420.3v-18.438h-4.035Zm-5.641,12.951h4.035v-12.145h-4.035Zm-5.641,0h4.035v-22.25h-4.035Zm-5.642,0h4.035v-6.169h-4.035Zm-5.641,0h4.035v-13.837H393.7Z" transform="translate(-390 -3875)" fill="#511de5"/>
</svg>
